<?xml version="1.0" encoding="UTF-8" standalone="no"?>
<svg width="563.386mm" height="328.789mm"
 viewBox="0 0 1597 932"
 xmlns="http://www.w3.org/2000/svg" xmlns:xlink="http://www.w3.org/1999/xlink"  version="1.2" baseProfile="tiny">
<title>OMEdit - OpenModelica Connection Editor</title>
<desc>Generated by OMEdit - OpenModelica Connection Editor</desc>
<defs>
</defs>
<g fill="none" stroke="black" stroke-width="1" fill-rule="evenodd" stroke-linecap="square" stroke-linejoin="bevel" >

<g fill="none" stroke="#000000" stroke-opacity="1" stroke-width="1" stroke-linecap="square" stroke-linejoin="bevel" transform="matrix(1,0,0,1,37,-2)"
font-family="MS Shell Dlg 2" font-size="8" font-weight="400" font-style="normal" 
>
</g>

<g fill="none" stroke="#000000" stroke-opacity="1" stroke-width="1" stroke-linecap="square" stroke-linejoin="bevel" transform="matrix(1,0,0,1,37,-2)"
font-family="MS Shell Dlg 2" font-size="8" font-weight="400" font-style="normal" 
>
</g>

<g fill="none" stroke="#000000" stroke-opacity="1" stroke-width="1" stroke-linecap="square" stroke-linejoin="bevel" transform="matrix(1,0,0,1,37,-2)"
font-family="MS Shell Dlg 2" font-size="8" font-weight="400" font-style="normal" 
>
</g>

<g fill="none" stroke="#000000" stroke-opacity="1" stroke-width="1" stroke-linecap="square" stroke-linejoin="bevel" transform="matrix(5.14762,0,0,-5.14762,798,540)"
font-family="MS Shell Dlg 2" font-size="8" font-weight="400" font-style="normal" 
>
</g>

<g fill="#ffffff" fill-opacity="1" stroke="#0000ff" stroke-opacity="1" stroke-width="2.12598" stroke-linecap="square" stroke-linejoin="miter" stroke-miterlimit="2" transform="matrix(5.14762,0,0,5.14762,798,540)"
font-family="MS Shell Dlg 2" font-size="8" font-weight="400" font-style="normal" 
>
<path vector-effect="non-scaling-stroke" fill-rule="evenodd" d="M50,0 C50,27.6142 27.6142,50 0,50 C-27.6142,50 -50,27.6142 -50,0 C-50,-27.6142 -27.6142,-50 0,-50 C27.6142,-50 50,-27.6142 50,0 "/>
</g>

<g fill="none" stroke="#000000" stroke-opacity="1" stroke-width="1" stroke-linecap="square" stroke-linejoin="bevel" transform="matrix(5.14762,0,0,-5.14762,798,540)"
font-family="MS Shell Dlg 2" font-size="8" font-weight="400" font-style="normal" 
>
</g>

<g fill="none" stroke="#000000" stroke-opacity="1" stroke-width="1" stroke-linecap="square" stroke-linejoin="bevel" transform="matrix(5.14762,0,0,-5.14762,798,540)"
font-family="MS Shell Dlg 2" font-size="8" font-weight="400" font-style="normal" 
>
</g>

<g fill="none" stroke="#0000ff" stroke-opacity="1" stroke-width="2.12598" stroke-linecap="square" stroke-linejoin="miter" stroke-miterlimit="2" transform="matrix(1,0,0,1,798,540)"
font-family="MS Shell Dlg 2" font-size="164.724" font-weight="400" font-style="normal" 
>
<text fill="#0000ff" fill-opacity="1" stroke="none" xml:space="preserve" x="-283" y="-346.297" font-family="MS Shell Dlg 2" font-size="164.724" font-weight="400" font-style="normal" 
 >%name</text>
</g>

<g fill="none" stroke="#000000" stroke-opacity="1" stroke-width="1" stroke-linecap="square" stroke-linejoin="bevel" transform="matrix(5.14762,0,0,-5.14762,798,540)"
font-family="MS Shell Dlg 2" font-size="8" font-weight="400" font-style="normal" 
>
</g>

<g fill="none" stroke="#000000" stroke-opacity="1" stroke-width="1" stroke-linecap="square" stroke-linejoin="bevel" transform="matrix(1,0,0,1,25.8571,231.143)"
font-family="MS Shell Dlg 2" font-size="8" font-weight="400" font-style="normal" 
>
</g>

<g fill="#800000" fill-opacity="1" stroke="#800000" stroke-opacity="1" stroke-width="1" stroke-linecap="square" stroke-linejoin="bevel" transform="matrix(1,0,0,1,25.8571,231.143)"
font-family="MS Shell Dlg 2" font-size="8" font-weight="400" font-style="normal" 
>
<rect x="-3" y="-3" width="6" height="6"/>
</g>

<g fill="none" stroke="#000000" stroke-opacity="1" stroke-width="1" stroke-linecap="square" stroke-linejoin="bevel" transform="matrix(1,0,0,1,25.8571,231.143)"
font-family="MS Shell Dlg 2" font-size="8" font-weight="400" font-style="normal" 
>
</g>

<g fill="none" stroke="#000000" stroke-opacity="1" stroke-width="1" stroke-linecap="square" stroke-linejoin="bevel" transform="matrix(1,0,0,1,1570.14,25.2381)"
font-family="MS Shell Dlg 2" font-size="8" font-weight="400" font-style="normal" 
>
</g>

<g fill="#800000" fill-opacity="1" stroke="#800000" stroke-opacity="1" stroke-width="1" stroke-linecap="square" stroke-linejoin="bevel" transform="matrix(1,0,0,1,1570.14,25.2381)"
font-family="MS Shell Dlg 2" font-size="8" font-weight="400" font-style="normal" 
>
<rect x="-3" y="-3" width="6" height="6"/>
</g>

<g fill="none" stroke="#000000" stroke-opacity="1" stroke-width="1" stroke-linecap="square" stroke-linejoin="bevel" transform="matrix(1,0,0,1,1570.14,25.2381)"
font-family="MS Shell Dlg 2" font-size="8" font-weight="400" font-style="normal" 
>
</g>

<g fill="none" stroke="#000000" stroke-opacity="1" stroke-width="1" stroke-linecap="square" stroke-linejoin="bevel" transform="matrix(5.14762,0,0,-5.14762,798,540)"
font-family="MS Shell Dlg 2" font-size="8" font-weight="400" font-style="normal" 
>
</g>

<g fill="none" stroke="#0000ff" stroke-opacity="1" stroke-width="2.12598" stroke-linecap="square" stroke-linejoin="bevel" transform="matrix(5.14762,0,0,-5.14762,798,540)"
font-family="MS Shell Dlg 2" font-size="8" font-weight="400" font-style="normal" 
>
<path vector-effect="non-scaling-stroke" fill-rule="evenodd" d="M-90,0 L90,0"/>
</g>

<g fill="none" stroke="#000000" stroke-opacity="1" stroke-width="1" stroke-linecap="square" stroke-linejoin="bevel" transform="matrix(5.14762,0,0,-5.14762,798,540)"
font-family="MS Shell Dlg 2" font-size="8" font-weight="400" font-style="normal" 
>
</g>

<g fill="none" stroke="#000000" stroke-opacity="1" stroke-width="1" stroke-linecap="square" stroke-linejoin="bevel" transform="matrix(5.14762,0,0,-5.14762,798,540)"
font-family="MS Shell Dlg 2" font-size="8" font-weight="400" font-style="normal" 
>
</g>

<g fill="none" stroke="#0000ff" stroke-opacity="1" stroke-width="2.12598" stroke-linecap="square" stroke-linejoin="bevel" transform="matrix(5.14762,0,0,-5.14762,798,540)"
font-family="MS Shell Dlg 2" font-size="8" font-weight="400" font-style="normal" 
>
<path vector-effect="non-scaling-stroke" fill-rule="evenodd" d="M-80,20 L-60,20"/>
</g>

<g fill="none" stroke="#000000" stroke-opacity="1" stroke-width="1" stroke-linecap="square" stroke-linejoin="bevel" transform="matrix(5.14762,0,0,-5.14762,798,540)"
font-family="MS Shell Dlg 2" font-size="8" font-weight="400" font-style="normal" 
>
</g>

<g fill="none" stroke="#000000" stroke-opacity="1" stroke-width="1" stroke-linecap="square" stroke-linejoin="bevel" transform="matrix(5.14762,0,0,-5.14762,798,540)"
font-family="MS Shell Dlg 2" font-size="8" font-weight="400" font-style="normal" 
>
</g>

<g fill="none" stroke="#0000ff" stroke-opacity="1" stroke-width="2.12598" stroke-linecap="square" stroke-linejoin="bevel" transform="matrix(5.14762,0,0,-5.14762,798,540)"
font-family="MS Shell Dlg 2" font-size="8" font-weight="400" font-style="normal" 
>
<path vector-effect="non-scaling-stroke" fill-rule="evenodd" d="M-70,30 L-70,10"/>
</g>

<g fill="none" stroke="#000000" stroke-opacity="1" stroke-width="1" stroke-linecap="square" stroke-linejoin="bevel" transform="matrix(5.14762,0,0,-5.14762,798,540)"
font-family="MS Shell Dlg 2" font-size="8" font-weight="400" font-style="normal" 
>
</g>

<g fill="none" stroke="#000000" stroke-opacity="1" stroke-width="1" stroke-linecap="square" stroke-linejoin="bevel" transform="matrix(5.14762,0,0,-5.14762,798,540)"
font-family="MS Shell Dlg 2" font-size="8" font-weight="400" font-style="normal" 
>
</g>

<g fill="none" stroke="#0000ff" stroke-opacity="1" stroke-width="2.12598" stroke-linecap="square" stroke-linejoin="bevel" transform="matrix(5.14762,0,0,-5.14762,798,540)"
font-family="MS Shell Dlg 2" font-size="8" font-weight="400" font-style="normal" 
>
<path vector-effect="non-scaling-stroke" fill-rule="evenodd" d="M60,20 L80,20"/>
</g>

<g fill="none" stroke="#000000" stroke-opacity="1" stroke-width="1" stroke-linecap="square" stroke-linejoin="bevel" transform="matrix(5.14762,0,0,-5.14762,798,540)"
font-family="MS Shell Dlg 2" font-size="8" font-weight="400" font-style="normal" 
>
</g>

<g fill="none" stroke="#000000" stroke-opacity="1" stroke-width="1" stroke-linecap="square" stroke-linejoin="bevel" transform="matrix(5.14762,0,0,-5.14762,798,540)"
font-family="MS Shell Dlg 2" font-size="8" font-weight="400" font-style="normal" 
>
</g>

<g fill="none" stroke="#c0c0c0" stroke-opacity="1" stroke-width="2.12598" stroke-linecap="square" stroke-linejoin="bevel" transform="matrix(5.14762,0,0,-5.14762,798,540)"
font-family="MS Shell Dlg 2" font-size="8" font-weight="400" font-style="normal" 
>
<path vector-effect="non-scaling-stroke" fill-rule="evenodd" d="M-66,0 L-56.2,29.9 L-49.8,46.5 L-44.2,58.1 L-39.3,65.2 L-34.3,69.2 L-29.4,69.8 L-24.5,67 L-19.6,61 L-14.6,52 L-9,38.6 L-1.98,18.6 L12.79,-26.9 L19.1,-44 L24.8,-56.2 L29.7,-64 L34.6,-68.6 L39.5,-70 L44.5,-67.9 L49.4,-62.5 L54.3,-54.1 L59.9,-41.3 L67,-21.7 L74,0"/>
</g>

<g fill="none" stroke="#000000" stroke-opacity="1" stroke-width="1" stroke-linecap="square" stroke-linejoin="bevel" transform="matrix(5.14762,0,0,-5.14762,798,540)"
font-family="MS Shell Dlg 2" font-size="8" font-weight="400" font-style="normal" 
>
</g>

<g fill="none" stroke="#000000" stroke-opacity="1" stroke-width="1" stroke-linecap="square" stroke-linejoin="bevel" transform="matrix(0.514762,0,0,-0.514762,283.238,540)"
font-family="MS Shell Dlg 2" font-size="8" font-weight="400" font-style="normal" 
>
</g>

<g fill="none" stroke="#000000" stroke-opacity="1" stroke-width="1" stroke-linecap="square" stroke-linejoin="bevel" transform="matrix(0.514762,0,0,-0.514762,283.238,540)"
font-family="MS Shell Dlg 2" font-size="8" font-weight="400" font-style="normal" 
>
</g>

<g fill="none" stroke="#000000" stroke-opacity="1" stroke-width="1" stroke-linecap="square" stroke-linejoin="bevel" transform="matrix(0.514762,0,0,-0.514762,283.238,540)"
font-family="MS Shell Dlg 2" font-size="8" font-weight="400" font-style="normal" 
>
</g>

<g fill="#0000ff" fill-opacity="1" stroke="#0000ff" stroke-opacity="1" stroke-width="2.12598" stroke-linecap="square" stroke-linejoin="miter" stroke-miterlimit="2" transform="matrix(0.514762,0,0,-0.514762,283.238,540)"
font-family="MS Shell Dlg 2" font-size="8" font-weight="400" font-style="normal" 
>
<rect x="-100" y="-100" width="200" height="200"/>
</g>

<g fill="none" stroke="#000000" stroke-opacity="1" stroke-width="1" stroke-linecap="square" stroke-linejoin="bevel" transform="matrix(0.514762,0,0,-0.514762,283.238,540)"
font-family="MS Shell Dlg 2" font-size="8" font-weight="400" font-style="normal" 
>
</g>

<g fill="none" stroke="#000000" stroke-opacity="1" stroke-width="1" stroke-linecap="square" stroke-linejoin="bevel" transform="matrix(1,0,0,1,231.762,591.476)"
font-family="MS Shell Dlg 2" font-size="8" font-weight="400" font-style="normal" 
>
</g>

<g fill="#000000" fill-opacity="0" stroke="#000000" stroke-opacity="0" stroke-width="1" stroke-linecap="square" stroke-linejoin="bevel" transform="matrix(1,0,0,1,231.762,591.476)"
font-family="MS Shell Dlg 2" font-size="8" font-weight="400" font-style="normal" 
>
<rect x="-3" y="-3" width="6" height="6"/>
</g>

<g fill="none" stroke="#000000" stroke-opacity="1" stroke-width="1" stroke-linecap="square" stroke-linejoin="bevel" transform="matrix(1,0,0,1,231.762,591.476)"
font-family="MS Shell Dlg 2" font-size="8" font-weight="400" font-style="normal" 
>
</g>

<g fill="none" stroke="#000000" stroke-opacity="1" stroke-width="1" stroke-linecap="square" stroke-linejoin="bevel" transform="matrix(1,0,0,1,231.762,488.524)"
font-family="MS Shell Dlg 2" font-size="8" font-weight="400" font-style="normal" 
>
</g>

<g fill="#000000" fill-opacity="0" stroke="#000000" stroke-opacity="0" stroke-width="1" stroke-linecap="square" stroke-linejoin="bevel" transform="matrix(1,0,0,1,231.762,488.524)"
font-family="MS Shell Dlg 2" font-size="8" font-weight="400" font-style="normal" 
>
<rect x="-3" y="-3" width="6" height="6"/>
</g>

<g fill="none" stroke="#000000" stroke-opacity="1" stroke-width="1" stroke-linecap="square" stroke-linejoin="bevel" transform="matrix(1,0,0,1,231.762,488.524)"
font-family="MS Shell Dlg 2" font-size="8" font-weight="400" font-style="normal" 
>
</g>

<g fill="none" stroke="#000000" stroke-opacity="1" stroke-width="1" stroke-linecap="square" stroke-linejoin="bevel" transform="matrix(1,0,0,1,334.714,488.524)"
font-family="MS Shell Dlg 2" font-size="8" font-weight="400" font-style="normal" 
>
</g>

<g fill="#000000" fill-opacity="0" stroke="#000000" stroke-opacity="0" stroke-width="1" stroke-linecap="square" stroke-linejoin="bevel" transform="matrix(1,0,0,1,334.714,488.524)"
font-family="MS Shell Dlg 2" font-size="8" font-weight="400" font-style="normal" 
>
<rect x="-3" y="-3" width="6" height="6"/>
</g>

<g fill="none" stroke="#000000" stroke-opacity="1" stroke-width="1" stroke-linecap="square" stroke-linejoin="bevel" transform="matrix(1,0,0,1,334.714,488.524)"
font-family="MS Shell Dlg 2" font-size="8" font-weight="400" font-style="normal" 
>
</g>

<g fill="none" stroke="#000000" stroke-opacity="1" stroke-width="1" stroke-linecap="square" stroke-linejoin="bevel" transform="matrix(1,0,0,1,334.714,591.476)"
font-family="MS Shell Dlg 2" font-size="8" font-weight="400" font-style="normal" 
>
</g>

<g fill="#000000" fill-opacity="0" stroke="#000000" stroke-opacity="0" stroke-width="1" stroke-linecap="square" stroke-linejoin="bevel" transform="matrix(1,0,0,1,334.714,591.476)"
font-family="MS Shell Dlg 2" font-size="8" font-weight="400" font-style="normal" 
>
<rect x="-3" y="-3" width="6" height="6"/>
</g>

<g fill="none" stroke="#000000" stroke-opacity="1" stroke-width="1" stroke-linecap="square" stroke-linejoin="bevel" transform="matrix(1,0,0,1,334.714,591.476)"
font-family="MS Shell Dlg 2" font-size="8" font-weight="400" font-style="normal" 
>
</g>

<g fill="none" stroke="#000000" stroke-opacity="1" stroke-width="1" stroke-linecap="square" stroke-linejoin="bevel" transform="matrix(-0.514762,0,0,-0.514762,1312.76,540)"
font-family="MS Shell Dlg 2" font-size="8" font-weight="400" font-style="normal" 
>
</g>

<g fill="none" stroke="#000000" stroke-opacity="1" stroke-width="1" stroke-linecap="square" stroke-linejoin="bevel" transform="matrix(-0.514762,0,0,-0.514762,1312.76,540)"
font-family="MS Shell Dlg 2" font-size="8" font-weight="400" font-style="normal" 
>
</g>

<g fill="none" stroke="#000000" stroke-opacity="1" stroke-width="1" stroke-linecap="square" stroke-linejoin="bevel" transform="matrix(-0.514762,0,0,-0.514762,1312.76,540)"
font-family="MS Shell Dlg 2" font-size="8" font-weight="400" font-style="normal" 
>
</g>

<g fill="#ffffff" fill-opacity="1" stroke="#0000ff" stroke-opacity="1" stroke-width="2.12598" stroke-linecap="square" stroke-linejoin="miter" stroke-miterlimit="2" transform="matrix(-0.514762,0,0,-0.514762,1312.76,540)"
font-family="MS Shell Dlg 2" font-size="8" font-weight="400" font-style="normal" 
>
<rect x="-100" y="-100" width="200" height="200"/>
</g>

<g fill="none" stroke="#000000" stroke-opacity="1" stroke-width="1" stroke-linecap="square" stroke-linejoin="bevel" transform="matrix(-0.514762,0,0,-0.514762,1312.76,540)"
font-family="MS Shell Dlg 2" font-size="8" font-weight="400" font-style="normal" 
>
</g>

<g fill="none" stroke="#000000" stroke-opacity="1" stroke-width="1" stroke-linecap="square" stroke-linejoin="bevel" transform="matrix(1,0,0,1,1261.29,591.476)"
font-family="MS Shell Dlg 2" font-size="8" font-weight="400" font-style="normal" 
>
</g>

<g fill="#000000" fill-opacity="0" stroke="#000000" stroke-opacity="0" stroke-width="1" stroke-linecap="square" stroke-linejoin="bevel" transform="matrix(1,0,0,1,1261.29,591.476)"
font-family="MS Shell Dlg 2" font-size="8" font-weight="400" font-style="normal" 
>
<rect x="-3" y="-3" width="6" height="6"/>
</g>

<g fill="none" stroke="#000000" stroke-opacity="1" stroke-width="1" stroke-linecap="square" stroke-linejoin="bevel" transform="matrix(1,0,0,1,1261.29,591.476)"
font-family="MS Shell Dlg 2" font-size="8" font-weight="400" font-style="normal" 
>
</g>

<g fill="none" stroke="#000000" stroke-opacity="1" stroke-width="1" stroke-linecap="square" stroke-linejoin="bevel" transform="matrix(1,0,0,1,1261.29,488.524)"
font-family="MS Shell Dlg 2" font-size="8" font-weight="400" font-style="normal" 
>
</g>

<g fill="#000000" fill-opacity="0" stroke="#000000" stroke-opacity="0" stroke-width="1" stroke-linecap="square" stroke-linejoin="bevel" transform="matrix(1,0,0,1,1261.29,488.524)"
font-family="MS Shell Dlg 2" font-size="8" font-weight="400" font-style="normal" 
>
<rect x="-3" y="-3" width="6" height="6"/>
</g>

<g fill="none" stroke="#000000" stroke-opacity="1" stroke-width="1" stroke-linecap="square" stroke-linejoin="bevel" transform="matrix(1,0,0,1,1261.29,488.524)"
font-family="MS Shell Dlg 2" font-size="8" font-weight="400" font-style="normal" 
>
</g>

<g fill="none" stroke="#000000" stroke-opacity="1" stroke-width="1" stroke-linecap="square" stroke-linejoin="bevel" transform="matrix(1,0,0,1,1364.24,488.524)"
font-family="MS Shell Dlg 2" font-size="8" font-weight="400" font-style="normal" 
>
</g>

<g fill="#000000" fill-opacity="0" stroke="#000000" stroke-opacity="0" stroke-width="1" stroke-linecap="square" stroke-linejoin="bevel" transform="matrix(1,0,0,1,1364.24,488.524)"
font-family="MS Shell Dlg 2" font-size="8" font-weight="400" font-style="normal" 
>
<rect x="-3" y="-3" width="6" height="6"/>
</g>

<g fill="none" stroke="#000000" stroke-opacity="1" stroke-width="1" stroke-linecap="square" stroke-linejoin="bevel" transform="matrix(1,0,0,1,1364.24,488.524)"
font-family="MS Shell Dlg 2" font-size="8" font-weight="400" font-style="normal" 
>
</g>

<g fill="none" stroke="#000000" stroke-opacity="1" stroke-width="1" stroke-linecap="square" stroke-linejoin="bevel" transform="matrix(1,0,0,1,1364.24,591.476)"
font-family="MS Shell Dlg 2" font-size="8" font-weight="400" font-style="normal" 
>
</g>

<g fill="#000000" fill-opacity="0" stroke="#000000" stroke-opacity="0" stroke-width="1" stroke-linecap="square" stroke-linejoin="bevel" transform="matrix(1,0,0,1,1364.24,591.476)"
font-family="MS Shell Dlg 2" font-size="8" font-weight="400" font-style="normal" 
>
<rect x="-3" y="-3" width="6" height="6"/>
</g>

<g fill="none" stroke="#000000" stroke-opacity="1" stroke-width="1" stroke-linecap="square" stroke-linejoin="bevel" transform="matrix(1,0,0,1,1364.24,591.476)"
font-family="MS Shell Dlg 2" font-size="8" font-weight="400" font-style="normal" 
>
</g>

<g fill="none" stroke="#000000" stroke-opacity="1" stroke-width="1" stroke-linecap="square" stroke-linejoin="bevel" transform="matrix(5.14762,0,0,-5.14762,798,540)"
font-family="MS Shell Dlg 2" font-size="8" font-weight="400" font-style="normal" 
>
</g>

<g fill="none" stroke="#000000" stroke-opacity="0" stroke-width="1" stroke-linecap="square" stroke-linejoin="bevel" transform="matrix(5.14762,0,0,-5.14762,798,540)"
font-family="MS Shell Dlg 2" font-size="8" font-weight="400" font-style="normal" 
>
<polyline fill="none" vector-effect="none" points="-2,0 2,0 " />
<polyline fill="none" vector-effect="none" points="0,-2 0,2 " />
</g>

<g fill="none" stroke="#000000" stroke-opacity="1" stroke-width="1" stroke-linecap="square" stroke-linejoin="bevel" transform="matrix(5.14762,0,0,-5.14762,798,540)"
font-family="MS Shell Dlg 2" font-size="8" font-weight="400" font-style="normal" 
>
</g>

<g fill="none" stroke="#000000" stroke-opacity="1" stroke-width="1" stroke-linecap="square" stroke-linejoin="bevel" transform="matrix(5.14762,0,0,-5.14762,798,540)"
font-family="MS Shell Dlg 2" font-size="8" font-weight="400" font-style="normal" 
>
</g>

<g fill="none" stroke="#000000" stroke-opacity="0" stroke-width="1" stroke-linecap="square" stroke-linejoin="bevel" transform="matrix(5.14762,0,0,-5.14762,798,540)"
font-family="MS Shell Dlg 2" font-size="8" font-weight="400" font-style="normal" 
>
<polyline fill="none" vector-effect="none" points="-2,0 2,0 " />
<polyline fill="none" vector-effect="none" points="0,-2 0,2 " />
</g>

<g fill="none" stroke="#000000" stroke-opacity="1" stroke-width="1" stroke-linecap="square" stroke-linejoin="bevel" transform="matrix(5.14762,0,0,-5.14762,798,540)"
font-family="MS Shell Dlg 2" font-size="8" font-weight="400" font-style="normal" 
>
</g>

<g fill="none" stroke="#000000" stroke-opacity="1" stroke-width="1" stroke-linecap="square" stroke-linejoin="bevel" transform="matrix(1,0,0,1,37,-2)"
font-family="MS Shell Dlg 2" font-size="8" font-weight="400" font-style="normal" 
>
</g>
</g>
</svg>
