<?xml version="1.0" encoding="UTF-8" standalone="no"?>
<svg width="1075.62mm" height="1605.84mm"
 viewBox="0 0 3049 4552"
 xmlns="http://www.w3.org/2000/svg" xmlns:xlink="http://www.w3.org/1999/xlink"  version="1.2" baseProfile="tiny">
<title>OMEdit - OpenModelica Connection Editor</title>
<desc>Generated by OMEdit - OpenModelica Connection Editor</desc>
<defs>
</defs>
<g fill="none" stroke="black" stroke-width="1" fill-rule="evenodd" stroke-linecap="square" stroke-linejoin="bevel" >

<g fill="none" stroke="#000000" stroke-opacity="1" stroke-width="1" stroke-linecap="square" stroke-linejoin="bevel" transform="matrix(1,0,0,1,763,1601)"
font-family="MS Shell Dlg 2" font-size="8" font-weight="400" font-style="normal" 
>
</g>

<g fill="none" stroke="#000000" stroke-opacity="1" stroke-width="1" stroke-linecap="square" stroke-linejoin="bevel" transform="matrix(1,0,0,1,763,1601)"
font-family="MS Shell Dlg 2" font-size="8" font-weight="400" font-style="normal" 
>
</g>

<g fill="none" stroke="#000000" stroke-opacity="1" stroke-width="1" stroke-linecap="square" stroke-linejoin="bevel" transform="matrix(1,0,0,1,763,1601)"
font-family="MS Shell Dlg 2" font-size="8" font-weight="400" font-style="normal" 
>
</g>

<g fill="none" stroke="#000000" stroke-opacity="1" stroke-width="1" stroke-linecap="square" stroke-linejoin="bevel" transform="matrix(5.14762,0,0,-5.14762,1524,2143)"
font-family="MS Shell Dlg 2" font-size="8" font-weight="400" font-style="normal" 
>
</g>

<g fill="none" stroke="#0000ff" stroke-opacity="1" stroke-width="2.12598" stroke-linecap="square" stroke-linejoin="bevel" transform="matrix(5.14762,0,0,-5.14762,1524,2143)"
font-family="MS Shell Dlg 2" font-size="8" font-weight="400" font-style="normal" 
>
<path vector-effect="non-scaling-stroke" fill-rule="evenodd" d="M60,0 L90,0"/>
</g>

<g fill="none" stroke="#000000" stroke-opacity="1" stroke-width="1" stroke-linecap="square" stroke-linejoin="bevel" transform="matrix(5.14762,0,0,-5.14762,1524,2143)"
font-family="MS Shell Dlg 2" font-size="8" font-weight="400" font-style="normal" 
>
</g>

<g fill="none" stroke="#000000" stroke-opacity="1" stroke-width="1" stroke-linecap="square" stroke-linejoin="bevel" transform="matrix(5.14762,0,0,-5.14762,1524,2143)"
font-family="MS Shell Dlg 2" font-size="8" font-weight="400" font-style="normal" 
>
</g>

<g fill="none" stroke="#0000ff" stroke-opacity="1" stroke-width="2.12598" stroke-linecap="square" stroke-linejoin="bevel" transform="matrix(5.14762,0,0,-5.14762,1524,2143)"
font-family="MS Shell Dlg 2" font-size="8" font-weight="400" font-style="normal" 
>
<path vector-effect="non-scaling-stroke" fill-rule="evenodd" d="M-90,0 L-60,0"/>
</g>

<g fill="none" stroke="#000000" stroke-opacity="1" stroke-width="1" stroke-linecap="square" stroke-linejoin="bevel" transform="matrix(5.14762,0,0,-5.14762,1524,2143)"
font-family="MS Shell Dlg 2" font-size="8" font-weight="400" font-style="normal" 
>
</g>

<g fill="none" stroke="#000000" stroke-opacity="1" stroke-width="1" stroke-linecap="square" stroke-linejoin="bevel" transform="matrix(5.14762,0,0,-5.14762,1524,2143)"
font-family="MS Shell Dlg 2" font-size="8" font-weight="400" font-style="normal" 
>
</g>

<g fill="none" stroke="#000000" stroke-opacity="1" stroke-width="2.12598" stroke-linecap="square" stroke-linejoin="miter" stroke-miterlimit="2" transform="matrix(1,0,0,1,1524,2143)"
font-family="MS Shell Dlg 2" font-size="164.724" font-weight="400" font-style="normal" 
>
<text fill="#000000" fill-opacity="1" stroke="none" xml:space="preserve" x="-222.5" y="374.344" font-family="MS Shell Dlg 2" font-size="164.724" font-weight="400" font-style="normal" 
 >L=%L</text>
</g>

<g fill="none" stroke="#000000" stroke-opacity="1" stroke-width="1" stroke-linecap="square" stroke-linejoin="bevel" transform="matrix(5.14762,0,0,-5.14762,1524,2143)"
font-family="MS Shell Dlg 2" font-size="8" font-weight="400" font-style="normal" 
>
</g>

<g fill="none" stroke="#000000" stroke-opacity="1" stroke-width="1" stroke-linecap="square" stroke-linejoin="bevel" transform="matrix(5.14762,0,0,-5.14762,1524,2143)"
font-family="MS Shell Dlg 2" font-size="8" font-weight="400" font-style="normal" 
>
</g>

<g fill="none" stroke="#0000ff" stroke-opacity="1" stroke-width="2.12598" stroke-linecap="square" stroke-linejoin="bevel" transform="matrix(5.14762,0,0,-5.14762,1524,2143)"
font-family="MS Shell Dlg 2" font-size="8" font-weight="400" font-style="normal" 
>
<path vector-effect="non-scaling-stroke" fill-rule="evenodd" d="M-60,0 L-59.5,3 C-59.5,3 -59,6 -55.5,10 C-55.5,10 -52,14 -45,14 C-45,14 -38,14 -34.5,10 C-34.5,10 -31,6 -30.5,3 L-30,0"/>
</g>

<g fill="none" stroke="#000000" stroke-opacity="1" stroke-width="1" stroke-linecap="square" stroke-linejoin="bevel" transform="matrix(5.14762,0,0,-5.14762,1524,2143)"
font-family="MS Shell Dlg 2" font-size="8" font-weight="400" font-style="normal" 
>
</g>

<g fill="none" stroke="#000000" stroke-opacity="1" stroke-width="1" stroke-linecap="square" stroke-linejoin="bevel" transform="matrix(5.14762,0,0,-5.14762,1524,2143)"
font-family="MS Shell Dlg 2" font-size="8" font-weight="400" font-style="normal" 
>
</g>

<g fill="none" stroke="#0000ff" stroke-opacity="1" stroke-width="2.12598" stroke-linecap="square" stroke-linejoin="bevel" transform="matrix(5.14762,0,0,-5.14762,1524,2143)"
font-family="MS Shell Dlg 2" font-size="8" font-weight="400" font-style="normal" 
>
<path vector-effect="non-scaling-stroke" fill-rule="evenodd" d="M-30,0 L-29.5,3 C-29.5,3 -29,6 -25.5,10 C-25.5,10 -22,14 -15,14 C-15,14 -8,14 -4.5,10 C-4.5,10 -1,6 -0.5,3 L0,0"/>
</g>

<g fill="none" stroke="#000000" stroke-opacity="1" stroke-width="1" stroke-linecap="square" stroke-linejoin="bevel" transform="matrix(5.14762,0,0,-5.14762,1524,2143)"
font-family="MS Shell Dlg 2" font-size="8" font-weight="400" font-style="normal" 
>
</g>

<g fill="none" stroke="#000000" stroke-opacity="1" stroke-width="1" stroke-linecap="square" stroke-linejoin="bevel" transform="matrix(5.14762,0,0,-5.14762,1524,2143)"
font-family="MS Shell Dlg 2" font-size="8" font-weight="400" font-style="normal" 
>
</g>

<g fill="none" stroke="#0000ff" stroke-opacity="1" stroke-width="2.12598" stroke-linecap="square" stroke-linejoin="bevel" transform="matrix(5.14762,0,0,-5.14762,1524,2143)"
font-family="MS Shell Dlg 2" font-size="8" font-weight="400" font-style="normal" 
>
<path vector-effect="non-scaling-stroke" fill-rule="evenodd" d="M0,0 L0.5,3 C0.5,3 1,6 4.5,10 C4.5,10 8,14 15,14 C15,14 22,14 25.5,10 C25.5,10 29,6 29.5,3 L30,0"/>
</g>

<g fill="none" stroke="#000000" stroke-opacity="1" stroke-width="1" stroke-linecap="square" stroke-linejoin="bevel" transform="matrix(5.14762,0,0,-5.14762,1524,2143)"
font-family="MS Shell Dlg 2" font-size="8" font-weight="400" font-style="normal" 
>
</g>

<g fill="none" stroke="#000000" stroke-opacity="1" stroke-width="1" stroke-linecap="square" stroke-linejoin="bevel" transform="matrix(5.14762,0,0,-5.14762,1524,2143)"
font-family="MS Shell Dlg 2" font-size="8" font-weight="400" font-style="normal" 
>
</g>

<g fill="none" stroke="#0000ff" stroke-opacity="1" stroke-width="2.12598" stroke-linecap="square" stroke-linejoin="bevel" transform="matrix(5.14762,0,0,-5.14762,1524,2143)"
font-family="MS Shell Dlg 2" font-size="8" font-weight="400" font-style="normal" 
>
<path vector-effect="non-scaling-stroke" fill-rule="evenodd" d="M30,0 L30.5,3 C30.5,3 31,6 34.5,10 C34.5,10 38,14 45,14 C45,14 52,14 55.5,10 C55.5,10 59,6 59.5,3 L60,0"/>
</g>

<g fill="none" stroke="#000000" stroke-opacity="1" stroke-width="1" stroke-linecap="square" stroke-linejoin="bevel" transform="matrix(5.14762,0,0,-5.14762,1524,2143)"
font-family="MS Shell Dlg 2" font-size="8" font-weight="400" font-style="normal" 
>
</g>

<g fill="none" stroke="#000000" stroke-opacity="1" stroke-width="1" stroke-linecap="square" stroke-linejoin="bevel" transform="matrix(5.14762,0,0,-5.14762,1524,2143)"
font-family="MS Shell Dlg 2" font-size="8" font-weight="400" font-style="normal" 
>
</g>

<g fill="none" stroke="#0000ff" stroke-opacity="1" stroke-width="2.12598" stroke-linecap="square" stroke-linejoin="miter" stroke-miterlimit="2" transform="matrix(1,0,0,1,1524,2143)"
font-family="MS Shell Dlg 2" font-size="164.724" font-weight="400" font-style="normal" 
>
<text fill="#0000ff" fill-opacity="1" stroke="none" xml:space="preserve" x="-283" y="-294.828" font-family="MS Shell Dlg 2" font-size="164.724" font-weight="400" font-style="normal" 
 >%name</text>
</g>

<g fill="none" stroke="#000000" stroke-opacity="1" stroke-width="1" stroke-linecap="square" stroke-linejoin="bevel" transform="matrix(5.14762,0,0,-5.14762,1524,2143)"
font-family="MS Shell Dlg 2" font-size="8" font-weight="400" font-style="normal" 
>
</g>

<g fill="none" stroke="#000000" stroke-opacity="1" stroke-width="1" stroke-linecap="square" stroke-linejoin="bevel" transform="matrix(1,0,0,1,751.857,1679.71)"
font-family="MS Shell Dlg 2" font-size="8" font-weight="400" font-style="normal" 
>
</g>

<g fill="#ff0000" fill-opacity="1" stroke="#ff0000" stroke-opacity="1" stroke-width="1" stroke-linecap="square" stroke-linejoin="bevel" transform="matrix(1,0,0,1,751.857,1679.71)"
font-family="MS Shell Dlg 2" font-size="8" font-weight="400" font-style="normal" 
>
<rect x="-3" y="-3" width="6" height="6"/>
</g>

<g fill="none" stroke="#000000" stroke-opacity="1" stroke-width="1" stroke-linecap="square" stroke-linejoin="bevel" transform="matrix(1,0,0,1,751.857,1679.71)"
font-family="MS Shell Dlg 2" font-size="8" font-weight="400" font-style="normal" 
>
</g>

<g fill="none" stroke="#000000" stroke-opacity="1" stroke-width="1" stroke-linecap="square" stroke-linejoin="bevel" transform="matrix(1,0,0,1,2296.14,1885.62)"
font-family="MS Shell Dlg 2" font-size="8" font-weight="400" font-style="normal" 
>
</g>

<g fill="#ff0000" fill-opacity="1" stroke="#ff0000" stroke-opacity="1" stroke-width="1" stroke-linecap="square" stroke-linejoin="bevel" transform="matrix(1,0,0,1,2296.14,1885.62)"
font-family="MS Shell Dlg 2" font-size="8" font-weight="400" font-style="normal" 
>
<rect x="-3" y="-3" width="6" height="6"/>
</g>

<g fill="none" stroke="#000000" stroke-opacity="1" stroke-width="1" stroke-linecap="square" stroke-linejoin="bevel" transform="matrix(1,0,0,1,2296.14,1885.62)"
font-family="MS Shell Dlg 2" font-size="8" font-weight="400" font-style="normal" 
>
</g>

<g fill="none" stroke="#000000" stroke-opacity="1" stroke-width="1" stroke-linecap="square" stroke-linejoin="bevel" transform="matrix(0.514762,0,0,-0.514762,1009.24,2143)"
font-family="MS Shell Dlg 2" font-size="8" font-weight="400" font-style="normal" 
>
</g>

<g fill="none" stroke="#000000" stroke-opacity="1" stroke-width="1" stroke-linecap="square" stroke-linejoin="bevel" transform="matrix(0.514762,0,0,-0.514762,1009.24,2143)"
font-family="MS Shell Dlg 2" font-size="8" font-weight="400" font-style="normal" 
>
</g>

<g fill="none" stroke="#000000" stroke-opacity="1" stroke-width="1" stroke-linecap="square" stroke-linejoin="bevel" transform="matrix(0.514762,0,0,-0.514762,1009.24,2143)"
font-family="MS Shell Dlg 2" font-size="8" font-weight="400" font-style="normal" 
>
</g>

<g fill="#0000ff" fill-opacity="1" stroke="#0000ff" stroke-opacity="1" stroke-width="2.12598" stroke-linecap="square" stroke-linejoin="miter" stroke-miterlimit="2" transform="matrix(0.514762,0,0,-0.514762,1009.24,2143)"
font-family="MS Shell Dlg 2" font-size="8" font-weight="400" font-style="normal" 
>
<rect x="-100" y="-100" width="200" height="200"/>
</g>

<g fill="none" stroke="#000000" stroke-opacity="1" stroke-width="1" stroke-linecap="square" stroke-linejoin="bevel" transform="matrix(0.514762,0,0,-0.514762,1009.24,2143)"
font-family="MS Shell Dlg 2" font-size="8" font-weight="400" font-style="normal" 
>
</g>

<g fill="none" stroke="#000000" stroke-opacity="1" stroke-width="1" stroke-linecap="square" stroke-linejoin="bevel" transform="matrix(1,0,0,1,957.762,2194.48)"
font-family="MS Shell Dlg 2" font-size="8" font-weight="400" font-style="normal" 
>
</g>

<g fill="#000000" fill-opacity="0" stroke="#000000" stroke-opacity="0" stroke-width="1" stroke-linecap="square" stroke-linejoin="bevel" transform="matrix(1,0,0,1,957.762,2194.48)"
font-family="MS Shell Dlg 2" font-size="8" font-weight="400" font-style="normal" 
>
<rect x="-3" y="-3" width="6" height="6"/>
</g>

<g fill="none" stroke="#000000" stroke-opacity="1" stroke-width="1" stroke-linecap="square" stroke-linejoin="bevel" transform="matrix(1,0,0,1,957.762,2194.48)"
font-family="MS Shell Dlg 2" font-size="8" font-weight="400" font-style="normal" 
>
</g>

<g fill="none" stroke="#000000" stroke-opacity="1" stroke-width="1" stroke-linecap="square" stroke-linejoin="bevel" transform="matrix(1,0,0,1,957.762,2091.52)"
font-family="MS Shell Dlg 2" font-size="8" font-weight="400" font-style="normal" 
>
</g>

<g fill="#000000" fill-opacity="0" stroke="#000000" stroke-opacity="0" stroke-width="1" stroke-linecap="square" stroke-linejoin="bevel" transform="matrix(1,0,0,1,957.762,2091.52)"
font-family="MS Shell Dlg 2" font-size="8" font-weight="400" font-style="normal" 
>
<rect x="-3" y="-3" width="6" height="6"/>
</g>

<g fill="none" stroke="#000000" stroke-opacity="1" stroke-width="1" stroke-linecap="square" stroke-linejoin="bevel" transform="matrix(1,0,0,1,957.762,2091.52)"
font-family="MS Shell Dlg 2" font-size="8" font-weight="400" font-style="normal" 
>
</g>

<g fill="none" stroke="#000000" stroke-opacity="1" stroke-width="1" stroke-linecap="square" stroke-linejoin="bevel" transform="matrix(1,0,0,1,1060.71,2091.52)"
font-family="MS Shell Dlg 2" font-size="8" font-weight="400" font-style="normal" 
>
</g>

<g fill="#000000" fill-opacity="0" stroke="#000000" stroke-opacity="0" stroke-width="1" stroke-linecap="square" stroke-linejoin="bevel" transform="matrix(1,0,0,1,1060.71,2091.52)"
font-family="MS Shell Dlg 2" font-size="8" font-weight="400" font-style="normal" 
>
<rect x="-3" y="-3" width="6" height="6"/>
</g>

<g fill="none" stroke="#000000" stroke-opacity="1" stroke-width="1" stroke-linecap="square" stroke-linejoin="bevel" transform="matrix(1,0,0,1,1060.71,2091.52)"
font-family="MS Shell Dlg 2" font-size="8" font-weight="400" font-style="normal" 
>
</g>

<g fill="none" stroke="#000000" stroke-opacity="1" stroke-width="1" stroke-linecap="square" stroke-linejoin="bevel" transform="matrix(1,0,0,1,1060.71,2194.48)"
font-family="MS Shell Dlg 2" font-size="8" font-weight="400" font-style="normal" 
>
</g>

<g fill="#000000" fill-opacity="0" stroke="#000000" stroke-opacity="0" stroke-width="1" stroke-linecap="square" stroke-linejoin="bevel" transform="matrix(1,0,0,1,1060.71,2194.48)"
font-family="MS Shell Dlg 2" font-size="8" font-weight="400" font-style="normal" 
>
<rect x="-3" y="-3" width="6" height="6"/>
</g>

<g fill="none" stroke="#000000" stroke-opacity="1" stroke-width="1" stroke-linecap="square" stroke-linejoin="bevel" transform="matrix(1,0,0,1,1060.71,2194.48)"
font-family="MS Shell Dlg 2" font-size="8" font-weight="400" font-style="normal" 
>
</g>

<g fill="none" stroke="#000000" stroke-opacity="1" stroke-width="1" stroke-linecap="square" stroke-linejoin="bevel" transform="matrix(-0.514762,0,0,-0.514762,2038.76,2143)"
font-family="MS Shell Dlg 2" font-size="8" font-weight="400" font-style="normal" 
>
</g>

<g fill="none" stroke="#000000" stroke-opacity="1" stroke-width="1" stroke-linecap="square" stroke-linejoin="bevel" transform="matrix(-0.514762,0,0,-0.514762,2038.76,2143)"
font-family="MS Shell Dlg 2" font-size="8" font-weight="400" font-style="normal" 
>
</g>

<g fill="none" stroke="#000000" stroke-opacity="1" stroke-width="1" stroke-linecap="square" stroke-linejoin="bevel" transform="matrix(-0.514762,0,0,-0.514762,2038.76,2143)"
font-family="MS Shell Dlg 2" font-size="8" font-weight="400" font-style="normal" 
>
</g>

<g fill="#ffffff" fill-opacity="1" stroke="#0000ff" stroke-opacity="1" stroke-width="2.12598" stroke-linecap="square" stroke-linejoin="miter" stroke-miterlimit="2" transform="matrix(-0.514762,0,0,-0.514762,2038.76,2143)"
font-family="MS Shell Dlg 2" font-size="8" font-weight="400" font-style="normal" 
>
<rect x="-100" y="-100" width="200" height="200"/>
</g>

<g fill="none" stroke="#000000" stroke-opacity="1" stroke-width="1" stroke-linecap="square" stroke-linejoin="bevel" transform="matrix(-0.514762,0,0,-0.514762,2038.76,2143)"
font-family="MS Shell Dlg 2" font-size="8" font-weight="400" font-style="normal" 
>
</g>

<g fill="none" stroke="#000000" stroke-opacity="1" stroke-width="1" stroke-linecap="square" stroke-linejoin="bevel" transform="matrix(1,0,0,1,1987.29,2194.48)"
font-family="MS Shell Dlg 2" font-size="8" font-weight="400" font-style="normal" 
>
</g>

<g fill="#000000" fill-opacity="0" stroke="#000000" stroke-opacity="0" stroke-width="1" stroke-linecap="square" stroke-linejoin="bevel" transform="matrix(1,0,0,1,1987.29,2194.48)"
font-family="MS Shell Dlg 2" font-size="8" font-weight="400" font-style="normal" 
>
<rect x="-3" y="-3" width="6" height="6"/>
</g>

<g fill="none" stroke="#000000" stroke-opacity="1" stroke-width="1" stroke-linecap="square" stroke-linejoin="bevel" transform="matrix(1,0,0,1,1987.29,2194.48)"
font-family="MS Shell Dlg 2" font-size="8" font-weight="400" font-style="normal" 
>
</g>

<g fill="none" stroke="#000000" stroke-opacity="1" stroke-width="1" stroke-linecap="square" stroke-linejoin="bevel" transform="matrix(1,0,0,1,1987.29,2091.52)"
font-family="MS Shell Dlg 2" font-size="8" font-weight="400" font-style="normal" 
>
</g>

<g fill="#000000" fill-opacity="0" stroke="#000000" stroke-opacity="0" stroke-width="1" stroke-linecap="square" stroke-linejoin="bevel" transform="matrix(1,0,0,1,1987.29,2091.52)"
font-family="MS Shell Dlg 2" font-size="8" font-weight="400" font-style="normal" 
>
<rect x="-3" y="-3" width="6" height="6"/>
</g>

<g fill="none" stroke="#000000" stroke-opacity="1" stroke-width="1" stroke-linecap="square" stroke-linejoin="bevel" transform="matrix(1,0,0,1,1987.29,2091.52)"
font-family="MS Shell Dlg 2" font-size="8" font-weight="400" font-style="normal" 
>
</g>

<g fill="none" stroke="#000000" stroke-opacity="1" stroke-width="1" stroke-linecap="square" stroke-linejoin="bevel" transform="matrix(1,0,0,1,2090.24,2091.52)"
font-family="MS Shell Dlg 2" font-size="8" font-weight="400" font-style="normal" 
>
</g>

<g fill="#000000" fill-opacity="0" stroke="#000000" stroke-opacity="0" stroke-width="1" stroke-linecap="square" stroke-linejoin="bevel" transform="matrix(1,0,0,1,2090.24,2091.52)"
font-family="MS Shell Dlg 2" font-size="8" font-weight="400" font-style="normal" 
>
<rect x="-3" y="-3" width="6" height="6"/>
</g>

<g fill="none" stroke="#000000" stroke-opacity="1" stroke-width="1" stroke-linecap="square" stroke-linejoin="bevel" transform="matrix(1,0,0,1,2090.24,2091.52)"
font-family="MS Shell Dlg 2" font-size="8" font-weight="400" font-style="normal" 
>
</g>

<g fill="none" stroke="#000000" stroke-opacity="1" stroke-width="1" stroke-linecap="square" stroke-linejoin="bevel" transform="matrix(1,0,0,1,2090.24,2194.48)"
font-family="MS Shell Dlg 2" font-size="8" font-weight="400" font-style="normal" 
>
</g>

<g fill="#000000" fill-opacity="0" stroke="#000000" stroke-opacity="0" stroke-width="1" stroke-linecap="square" stroke-linejoin="bevel" transform="matrix(1,0,0,1,2090.24,2194.48)"
font-family="MS Shell Dlg 2" font-size="8" font-weight="400" font-style="normal" 
>
<rect x="-3" y="-3" width="6" height="6"/>
</g>

<g fill="none" stroke="#000000" stroke-opacity="1" stroke-width="1" stroke-linecap="square" stroke-linejoin="bevel" transform="matrix(1,0,0,1,2090.24,2194.48)"
font-family="MS Shell Dlg 2" font-size="8" font-weight="400" font-style="normal" 
>
</g>

<g fill="none" stroke="#000000" stroke-opacity="1" stroke-width="1" stroke-linecap="square" stroke-linejoin="bevel" transform="matrix(5.14762,0,0,-5.14762,1524,2143)"
font-family="MS Shell Dlg 2" font-size="8" font-weight="400" font-style="normal" 
>
</g>

<g fill="none" stroke="#000000" stroke-opacity="0" stroke-width="1" stroke-linecap="square" stroke-linejoin="bevel" transform="matrix(5.14762,0,0,-5.14762,1524,2143)"
font-family="MS Shell Dlg 2" font-size="8" font-weight="400" font-style="normal" 
>
<polyline fill="none" vector-effect="none" points="-2,0 2,0 " />
<polyline fill="none" vector-effect="none" points="0,-2 0,2 " />
</g>

<g fill="none" stroke="#000000" stroke-opacity="1" stroke-width="1" stroke-linecap="square" stroke-linejoin="bevel" transform="matrix(5.14762,0,0,-5.14762,1524,2143)"
font-family="MS Shell Dlg 2" font-size="8" font-weight="400" font-style="normal" 
>
</g>

<g fill="none" stroke="#000000" stroke-opacity="1" stroke-width="1" stroke-linecap="square" stroke-linejoin="bevel" transform="matrix(5.14762,0,0,-5.14762,1524,2143)"
font-family="MS Shell Dlg 2" font-size="8" font-weight="400" font-style="normal" 
>
</g>

<g fill="none" stroke="#000000" stroke-opacity="0" stroke-width="1" stroke-linecap="square" stroke-linejoin="bevel" transform="matrix(5.14762,0,0,-5.14762,1524,2143)"
font-family="MS Shell Dlg 2" font-size="8" font-weight="400" font-style="normal" 
>
<polyline fill="none" vector-effect="none" points="-2,0 2,0 " />
<polyline fill="none" vector-effect="none" points="0,-2 0,2 " />
</g>

<g fill="none" stroke="#000000" stroke-opacity="1" stroke-width="1" stroke-linecap="square" stroke-linejoin="bevel" transform="matrix(5.14762,0,0,-5.14762,1524,2143)"
font-family="MS Shell Dlg 2" font-size="8" font-weight="400" font-style="normal" 
>
</g>

<g fill="none" stroke="#000000" stroke-opacity="1" stroke-width="1" stroke-linecap="square" stroke-linejoin="bevel" transform="matrix(1,0,0,1,763,1601)"
font-family="MS Shell Dlg 2" font-size="8" font-weight="400" font-style="normal" 
>
</g>
</g>
</svg>
