<?xml version="1.0" encoding="UTF-8"?>
<svg width="39px" height="59px" viewBox="0 0 39 59" version="1.1" xmlns="http://www.w3.org/2000/svg" xmlns:xlink="http://www.w3.org/1999/xlink">
    <!-- Generator: Sketch 64 (93537) - https://sketch.com -->
    <title>ground-icon</title>
    <desc>Created with Sketch.</desc>
    <g id="Page-1" stroke="none" stroke-width="1" fill="none" fill-rule="evenodd">
        <g id="ground-icon">
            <g id="Group-2" transform="translate(0.405356, 0.334690)" stroke="#0000FF">
                <g id="Group" stroke-linejoin="bevel" transform="translate(19.500000, 20.121591) scale(-1, 1) rotate(-180.000000) translate(-19.500000, -20.121591) translate(0.000000, 19.121591)" stroke-width="0.680388765">
                    <line x1="0" y1="1.32003535" x2="38.4042426" y2="1.32003535" id="Path"></line>
                </g>
                <g id="Group" stroke-linejoin="bevel" transform="translate(19.400707, 26.522298) scale(-1, 1) rotate(-180.000000) translate(-19.400707, -26.522298) translate(6.400707, 25.522298)" stroke-width="0.680388765">
                    <line x1="0" y1="1.32003535" x2="25.6028284" y2="1.32003535" id="Path"></line>
                </g>
                <g id="Group" stroke-linejoin="bevel" transform="translate(19.301414, 32.923005) scale(-1, 1) rotate(-180.000000) translate(-19.301414, -32.923005) translate(12.801414, 31.923005)" stroke-width="0.680388765">
                    <line x1="0" y1="1.32003535" x2="12.8014142" y2="1.32003535" id="Path"></line>
                </g>
                <g id="Group" stroke-linejoin="bevel" transform="translate(18.882086, 13.301555) scale(-1, 1) rotate(-180.000000) translate(-18.882086, -13.301555) translate(17.882086, 6.801555)" stroke-width="0.680388765">
                    <line x1="1.32003535" y1="12.8014142" x2="1.32003535" y2="0" id="Path"></line>
                </g>
                <g id="Group" transform="translate(19.501768, 3.500000) rotate(-90.000000) translate(-19.501768, -3.500000) translate(16.001768, 0.000000)" fill="#0000FF" fill-rule="nonzero" stroke-width="0.5">
                    <rect id="Rectangle" x="0" y="0" width="6.40070711" height="6.40070711"></rect>
                </g>
            </g>
            <g id="Group" transform="translate(0.910238, 45.665794)" fill="#0000FF" font-family="Helvetica" font-size="10.2411483" font-weight="normal">
                <g id="ground1">
                    <text>
                        <tspan x="0" y="10.2480383">ground1</tspan>
                    </text>
                </g>
            </g>
        </g>
    </g>
</svg>