<?xml version="1.0" encoding="UTF-8"?>
<svg width="72px" height="59px" viewBox="0 0 72 59" version="1.1" xmlns="http://www.w3.org/2000/svg" xmlns:xlink="http://www.w3.org/1999/xlink">
    <!-- Generator: Sketch 64 (93537) - https://sketch.com -->
    <title>sine-voltage-icon</title>
    <desc>Created with Sketch.</desc>
    <g id="Page-1" stroke="none" stroke-width="1" fill="none" fill-rule="evenodd">
        <g id="sine-voltage-icon" transform="translate(-1.000000, -4.000000)">
            <g transform="translate(36.981659, 31.115013) rotate(-90.000000) translate(-36.981659, -31.115013) translate(5.981659, -4.884987)" id="Group">
                <g transform="translate(54.651766, 36.990466) rotate(90.000000) translate(-54.651766, -36.990466) translate(24.651766, 30.490466)" fill="#0000FF" font-family="Helvetica" font-size="10.2411483" font-weight="normal">
                    <g id="sineVoltage1">
                        <text>
                            <tspan x="0.176389051" y="10.3307295">sineVoltage1</tspan>
                        </text>
                    </g>
                </g>
                <g stroke-linejoin="bevel" transform="translate(22.081701, 36.115088) scale(-1, 1) rotate(90.000000) translate(-22.081701, -36.115088) translate(-6.918299, 35.115088)" stroke="#0000FF" stroke-width="0.680388765">
                    <line x1="0" y1="1.32003535" x2="57.606364" y2="1.32003535" id="Path"></line>
                </g>
                <g stroke-linejoin="bevel" transform="translate(28.482408, 13.815442) scale(-1, 1) rotate(90.000000) translate(-28.482408, -13.815442) translate(24.982408, 12.815442)" stroke="#0000FF" stroke-width="0.680388765">
                    <line x1="0" y1="1.32003535" x2="6.40070711" y2="1.32003535" id="Path"></line>
                </g>
                <g stroke-linejoin="bevel" transform="translate(29.102090, 13.195760) scale(-1, 1) rotate(90.000000) translate(-29.102090, -13.195760) translate(28.102090, 9.695760)" stroke="#0000FF" stroke-width="0.680388765">
                    <line x1="1.32003535" y1="6.40070711" x2="1.32003535" y2="0" id="Path"></line>
                </g>
                <g stroke-linejoin="bevel" transform="translate(22.499261, 37.295937) scale(-1, 1) rotate(90.000000) translate(-22.499261, -37.295937) translate(-0.000739, 14.795937)" stroke="#C0C0C0" stroke-width="0.680388765">
                    <polyline id="Path" points="0 22.4024749 3.13634648 31.971532 5.18457276 37.2841189 6.97677075 40.996529 8.54494399 43.2687801 10.1451208 44.5489215 11.713294 44.7409427 13.2814672 43.8448437 14.8496405 41.9246316 16.4498173 39.0443134 18.2420153 34.7558396 20.4886635 28.3551325 25.2155857 13.7935238 27.2350087 8.32091924 29.0592103 4.4164879 30.6273835 1.92021213 32.1955568 0.448049498 33.76373 0 35.3639068 0.672074246 36.93208 2.40026517 38.5002533 5.08856215 40.2924512 9.1850147 42.5647023 15.4577077 44.8049498 22.4024749"></polyline>
                </g>
                <g transform="translate(22.701383, 4.214240) scale(-1, 1) rotate(90.000000) translate(-22.701383, -4.214240) translate(19.201383, 0.714240)" fill="#0000FF" fill-rule="nonzero" stroke="#0000FF" stroke-width="0.5">
                    <rect id="Rectangle" x="0" y="0" width="6.40070711" height="6.40070711"></rect>
                </g>
                <g transform="translate(22.701383, 67.621948) rotate(-90.000000) translate(-22.701383, -67.621948) translate(19.201383, 64.121948)" fill="#FFFFFF" fill-rule="nonzero" stroke="#0000FF" stroke-width="0.5">
                    <rect id="Rectangle" x="0" y="0" width="6.40070711" height="6.40070711"></rect>
                </g>
                <g transform="translate(22.403504, 35.916502) rotate(90.000000) translate(-22.403504, -35.916502) translate(6.403504, 19.916502)" fill="#FFFFFF" fill-rule="nonzero" stroke="#0000FF" stroke-width="0.680388765">
                    <path d="M32.0035355,16.0017678 C32.0035355,24.8392881 24.8392881,32.0035355 16.0017678,32.0035355 C7.16424746,32.0035355 0,24.8392881 0,16.0017678 C0,7.16424746 7.16424746,0 16.0017678,0 C24.8392881,0 32.0035355,7.16424746 32.0035355,16.0017678" id="Path"></path>
                </g>
                <g stroke-linejoin="bevel" transform="translate(28.482408, 58.620392) scale(-1, 1) rotate(90.000000) translate(-28.482408, -58.620392) translate(24.982408, 57.620392)" stroke="#0000FF" stroke-width="0.680388765">
                    <line x1="0" y1="1.32003535" x2="6.40070711" y2="1.32003535" id="Path"></line>
                </g>
            </g>
        </g>
    </g>
</svg>